<mxfile host="app.diagrams.net" agent="Mozilla/5.0 (Windows NT 10.0; Win64; x64) AppleWebKit/537.36 (KHTML, like Gecko) Chrome/133.0.0.0 Safari/537.36 Edg/133.0.0.0" version="26.0.14">
  <diagram name="Page-1" id="03018318-947c-dd8e-b7a3-06fadd420f32">
    <mxGraphModel dx="2445" dy="2610" grid="1" gridSize="10" guides="1" tooltips="1" connect="1" arrows="1" fold="1" page="1" pageScale="1" pageWidth="1100" pageHeight="850" background="#ffffff" math="0" shadow="0">
      <root>
        <mxCell id="0" />
        <mxCell id="1" parent="0" />
        <mxCell id="677b7b8949515195-2" value="Sage Daily&amp;nbsp;" style="whiteSpace=wrap;html=1;rounded=0;shadow=0;labelBackgroundColor=none;strokeWidth=1;fontFamily=Verdana;fontSize=28;align=center;comic=1;" parent="1" vertex="1">
          <mxGeometry x="40" y="60" width="190" height="50" as="geometry" />
        </mxCell>
        <mxCell id="677b7b8949515195-3" value="Search" style="strokeWidth=1;shadow=0;dashed=0;align=center;html=1;shape=mxgraph.mockup.forms.searchBox;strokeColor=#999999;mainText=;strokeColor2=#008cff;fontColor=#666666;fontSize=17;align=left;spacingLeft=3;rounded=0;labelBackgroundColor=none;comic=1;" parent="1" vertex="1">
          <mxGeometry x="840" y="95" width="220" height="30" as="geometry" />
        </mxCell>
        <mxCell id="677b7b8949515195-4" value="weather&amp;nbsp;" style="text;html=1;points=[];align=left;verticalAlign=top;spacingTop=-4;fontSize=14;fontFamily=Verdana" parent="1" vertex="1">
          <mxGeometry x="750" y="40" width="60" height="20" as="geometry" />
        </mxCell>
        <mxCell id="677b7b8949515195-5" value="entertainment" style="text;html=1;points=[];align=left;verticalAlign=top;spacingTop=-4;fontSize=14;fontFamily=Verdana" parent="1" vertex="1">
          <mxGeometry x="820" y="40" width="60" height="20" as="geometry" />
        </mxCell>
        <mxCell id="677b7b8949515195-6" value="sports" style="text;html=1;points=[];align=left;verticalAlign=top;spacingTop=-4;fontSize=14;fontFamily=Verdana" parent="1" vertex="1">
          <mxGeometry x="930" y="40" width="60" height="20" as="geometry" />
        </mxCell>
        <mxCell id="677b7b8949515195-7" value="technology" style="text;html=1;points=[];align=left;verticalAlign=top;spacingTop=-4;fontSize=14;fontFamily=Verdana" parent="1" vertex="1">
          <mxGeometry x="990" y="40" width="60" height="20" as="geometry" />
        </mxCell>
        <mxCell id="677b7b8949515195-9" value="" style="line;strokeWidth=1;html=1;rounded=0;shadow=0;labelBackgroundColor=none;fillColor=none;fontFamily=Verdana;fontSize=14;fontColor=#000000;align=center;comic=1;" parent="1" vertex="1">
          <mxGeometry x="20" y="140" width="1060" height="10" as="geometry" />
        </mxCell>
        <mxCell id="677b7b8949515195-10" value="" style="whiteSpace=wrap;html=1;rounded=0;shadow=0;labelBackgroundColor=none;strokeWidth=1;fillColor=none;fontFamily=Verdana;fontSize=12;align=center;comic=1;" parent="1" vertex="1">
          <mxGeometry x="30" y="160" width="1040" height="50" as="geometry" />
        </mxCell>
        <mxCell id="677b7b8949515195-11" value="football&amp;nbsp;" style="text;html=1;points=[];align=left;verticalAlign=top;spacingTop=-4;fontSize=14;fontFamily=Verdana" parent="1" vertex="1">
          <mxGeometry x="330" y="175" width="60" height="20" as="geometry" />
        </mxCell>
        <mxCell id="677b7b8949515195-12" value="rugby" style="text;html=1;points=[];align=left;verticalAlign=top;spacingTop=-4;fontSize=14;fontFamily=Verdana" parent="1" vertex="1">
          <mxGeometry x="477" y="175" width="60" height="25" as="geometry" />
        </mxCell>
        <mxCell id="677b7b8949515195-13" value="tennis&amp;nbsp;" style="text;html=1;points=[];align=left;verticalAlign=top;spacingTop=-4;fontSize=14;fontFamily=Verdana" parent="1" vertex="1">
          <mxGeometry x="623" y="175" width="60" height="20" as="geometry" />
        </mxCell>
        <mxCell id="tGLtq9OhCJqC_mUNQPJR-13" style="edgeStyle=none;curved=1;rounded=0;orthogonalLoop=1;jettySize=auto;html=1;fontSize=12;startSize=8;endSize=8;" parent="1" edge="1">
          <mxGeometry relative="1" as="geometry">
            <mxPoint x="1180" y="650" as="targetPoint" />
            <mxPoint x="1210" y="670" as="sourcePoint" />
          </mxGeometry>
        </mxCell>
        <mxCell id="677b7b8949515195-25" value="" style="whiteSpace=wrap;html=1;rounded=0;shadow=0;labelBackgroundColor=none;strokeWidth=1;fillColor=none;fontFamily=Verdana;fontSize=12;align=center;comic=1;" parent="1" vertex="1">
          <mxGeometry x="840" y="230" width="230" height="400" as="geometry" />
        </mxCell>
        <mxCell id="677b7b8949515195-26" value="" style="whiteSpace=wrap;html=1;rounded=0;shadow=0;labelBackgroundColor=none;strokeWidth=1;fillColor=none;fontFamily=Verdana;fontSize=12;align=center;comic=1;" parent="1" vertex="1">
          <mxGeometry x="840" y="640" width="230" height="180" as="geometry" />
        </mxCell>
        <mxCell id="677b7b8949515195-30" value="\" style="text;html=1;points=[];align=left;verticalAlign=top;spacingTop=-4;fontSize=14;fontFamily=Verdana" parent="1" vertex="1">
          <mxGeometry x="40" y="357" width="170" height="20" as="geometry" />
        </mxCell>
        <mxCell id="677b7b8949515195-36" value="\" style="text;html=1;points=[];align=left;verticalAlign=top;spacingTop=-4;fontSize=14;fontFamily=Verdana" parent="1" vertex="1">
          <mxGeometry x="40" y="663" width="170" height="297" as="geometry" />
        </mxCell>
        <mxCell id="677b7b8949515195-47" value="Feature 4" style="text;html=1;points=[];align=left;verticalAlign=top;spacingTop=-4;fontSize=14;fontFamily=Verdana" parent="1" vertex="1">
          <mxGeometry x="990" y="623" width="170" height="20" as="geometry" />
        </mxCell>
        <mxCell id="tGLtq9OhCJqC_mUNQPJR-11" style="edgeStyle=none;curved=1;rounded=0;orthogonalLoop=1;jettySize=auto;html=1;exitX=0.5;exitY=1;exitDx=0;exitDy=0;fontSize=12;startSize=8;endSize=8;entryX=0.623;entryY=0.747;entryDx=0;entryDy=0;entryPerimeter=0;" parent="1" source="tGLtq9OhCJqC_mUNQPJR-1" target="tGLtq9OhCJqC_mUNQPJR-1" edge="1">
          <mxGeometry relative="1" as="geometry">
            <mxPoint x="890" y="-100" as="targetPoint" />
          </mxGeometry>
        </mxCell>
        <mxCell id="tGLtq9OhCJqC_mUNQPJR-1" value="image of ftooball latest news or any sport they click on&amp;nbsp;" style="text;strokeColor=none;fillColor=none;html=1;align=center;verticalAlign=middle;whiteSpace=wrap;rounded=0;fontSize=16;" parent="1" vertex="1">
          <mxGeometry x="890" y="-330" width="250" height="120" as="geometry" />
        </mxCell>
        <mxCell id="tGLtq9OhCJqC_mUNQPJR-7" value="Pool" style="swimlane;childLayout=stackLayout;resizeParent=1;resizeParentMax=0;horizontal=1;startSize=20;horizontalStack=0;html=1;" parent="1" vertex="1">
          <mxGeometry x="260" y="600" width="550" height="220" as="geometry" />
        </mxCell>
        <mxCell id="tGLtq9OhCJqC_mUNQPJR-8" value="Lane 1" style="swimlane;startSize=20;horizontal=0;html=1;" parent="tGLtq9OhCJqC_mUNQPJR-7" vertex="1">
          <mxGeometry y="20" width="550" height="110" as="geometry" />
        </mxCell>
        <mxCell id="tGLtq9OhCJqC_mUNQPJR-9" value="Lane 2" style="swimlane;startSize=20;horizontal=0;html=1;" parent="tGLtq9OhCJqC_mUNQPJR-7" vertex="1">
          <mxGeometry y="130" width="550" height="90" as="geometry" />
        </mxCell>
        <mxCell id="tGLtq9OhCJqC_mUNQPJR-24" value="new balance with bellingham" style="text;strokeColor=none;fillColor=none;html=1;align=center;verticalAlign=middle;whiteSpace=wrap;rounded=0;fontSize=16;" parent="tGLtq9OhCJqC_mUNQPJR-9" vertex="1">
          <mxGeometry x="180" y="30" width="120" height="30" as="geometry" />
        </mxCell>
        <mxCell id="tGLtq9OhCJqC_mUNQPJR-18" value="athletico vs real madird&amp;nbsp;" style="text;strokeColor=none;fillColor=none;html=1;align=center;verticalAlign=middle;whiteSpace=wrap;rounded=0;fontSize=16;" parent="1" vertex="1">
          <mxGeometry x="870" y="320" width="160" height="20" as="geometry" />
        </mxCell>
        <mxCell id="tGLtq9OhCJqC_mUNQPJR-19" value="psg vs manchester&amp;nbsp;" style="text;strokeColor=none;fillColor=none;html=1;align=center;verticalAlign=middle;whiteSpace=wrap;rounded=0;fontSize=16;" parent="1" vertex="1">
          <mxGeometry x="890" y="415" width="100" height="30" as="geometry" />
        </mxCell>
        <mxCell id="tGLtq9OhCJqC_mUNQPJR-23" value="adidas recent collab with neymar&amp;nbsp;" style="text;strokeColor=none;fillColor=none;html=1;align=center;verticalAlign=middle;whiteSpace=wrap;rounded=0;fontSize=16;" parent="1" vertex="1">
          <mxGeometry x="440" y="663" width="130" height="30" as="geometry" />
        </mxCell>
        <mxCell id="oWOTrId1yVSzaJ3O2O2T-2" value="Vertical Container" style="swimlane;whiteSpace=wrap;html=1;" vertex="1" parent="1">
          <mxGeometry x="10" y="230" width="250" height="620" as="geometry" />
        </mxCell>
        <mxCell id="oWOTrId1yVSzaJ3O2O2T-11" value="" style="rounded=0;whiteSpace=wrap;html=1;" vertex="1" parent="oWOTrId1yVSzaJ3O2O2T-2">
          <mxGeometry y="37" width="240" height="113" as="geometry" />
        </mxCell>
        <mxCell id="oWOTrId1yVSzaJ3O2O2T-12" value="" style="whiteSpace=wrap;html=1;rounded=0;" vertex="1" parent="oWOTrId1yVSzaJ3O2O2T-2">
          <mxGeometry y="150" width="240" height="110" as="geometry" />
        </mxCell>
        <mxCell id="oWOTrId1yVSzaJ3O2O2T-14" value="latest articles&amp;nbsp;" style="text;strokeColor=none;fillColor=none;html=1;align=center;verticalAlign=middle;whiteSpace=wrap;rounded=0;fontSize=16;" vertex="1" parent="oWOTrId1yVSzaJ3O2O2T-2">
          <mxGeometry x="80" y="90" width="60" height="30" as="geometry" />
        </mxCell>
        <mxCell id="oWOTrId1yVSzaJ3O2O2T-15" style="edgeStyle=none;curved=1;rounded=0;orthogonalLoop=1;jettySize=auto;html=1;exitX=0.5;exitY=0;exitDx=0;exitDy=0;fontSize=12;startSize=8;endSize=8;" edge="1" parent="oWOTrId1yVSzaJ3O2O2T-2" source="oWOTrId1yVSzaJ3O2O2T-14" target="oWOTrId1yVSzaJ3O2O2T-11">
          <mxGeometry relative="1" as="geometry" />
        </mxCell>
        <mxCell id="oWOTrId1yVSzaJ3O2O2T-16" value="latest articles&amp;nbsp;" style="text;strokeColor=none;fillColor=none;html=1;align=center;verticalAlign=middle;whiteSpace=wrap;rounded=0;fontSize=16;" vertex="1" parent="oWOTrId1yVSzaJ3O2O2T-2">
          <mxGeometry x="90" y="190" width="60" height="30" as="geometry" />
        </mxCell>
        <mxCell id="oWOTrId1yVSzaJ3O2O2T-17" value="" style="whiteSpace=wrap;html=1;rounded=0;" vertex="1" parent="oWOTrId1yVSzaJ3O2O2T-2">
          <mxGeometry x="5" y="260" width="240" height="110" as="geometry" />
        </mxCell>
        <mxCell id="677b7b8949515195-16" value="" style="verticalLabelPosition=bottom;shadow=0;dashed=0;align=center;html=1;verticalAlign=top;strokeWidth=1;shape=mxgraph.mockup.graphics.simpleIcon;strokeColor=#999999;rounded=0;labelBackgroundColor=none;fontFamily=Verdana;fontSize=14;fontColor=#000000;comic=1;" parent="1" vertex="1">
          <mxGeometry x="280" y="240" width="530" height="349" as="geometry" />
        </mxCell>
        <mxCell id="tGLtq9OhCJqC_mUNQPJR-2" style="edgeStyle=none;curved=1;rounded=0;orthogonalLoop=1;jettySize=auto;html=1;fontSize=12;startSize=8;endSize=8;" parent="1" source="677b7b8949515195-16" target="677b7b8949515195-16" edge="1">
          <mxGeometry relative="1" as="geometry" />
        </mxCell>
        <mxCell id="oWOTrId1yVSzaJ3O2O2T-3" value="image of the most recent/ trending new s" style="text;strokeColor=none;fillColor=none;html=1;align=center;verticalAlign=middle;whiteSpace=wrap;rounded=0;fontSize=16;" vertex="1" parent="1">
          <mxGeometry x="420" y="490" width="240" height="30" as="geometry" />
        </mxCell>
        <mxCell id="oWOTrId1yVSzaJ3O2O2T-4" value="highlits of the&amp;nbsp; latest games played&amp;nbsp;" style="text;strokeColor=none;fillColor=none;html=1;align=center;verticalAlign=middle;whiteSpace=wrap;rounded=0;fontSize=16;" vertex="1" parent="1">
          <mxGeometry x="850" y="700" width="140" height="90" as="geometry" />
        </mxCell>
        <mxCell id="oWOTrId1yVSzaJ3O2O2T-9" value="Formula 1" style="text;strokeColor=none;fillColor=none;html=1;align=center;verticalAlign=middle;whiteSpace=wrap;rounded=0;fontSize=16;" vertex="1" parent="1">
          <mxGeometry x="735" y="165" width="90" height="30" as="geometry" />
        </mxCell>
        <mxCell id="oWOTrId1yVSzaJ3O2O2T-18" value="" style="whiteSpace=wrap;html=1;rounded=0;" vertex="1" parent="1">
          <mxGeometry x="10" y="600" width="240" height="110" as="geometry" />
        </mxCell>
        <mxCell id="oWOTrId1yVSzaJ3O2O2T-19" value="" style="whiteSpace=wrap;html=1;rounded=0;" vertex="1" parent="1">
          <mxGeometry x="10" y="720" width="240" height="110" as="geometry" />
        </mxCell>
        <mxCell id="oWOTrId1yVSzaJ3O2O2T-24" style="edgeStyle=none;curved=1;rounded=0;orthogonalLoop=1;jettySize=auto;html=1;fontSize=12;startSize=8;endSize=8;" edge="1" parent="1" source="oWOTrId1yVSzaJ3O2O2T-23" target="677b7b8949515195-25">
          <mxGeometry relative="1" as="geometry" />
        </mxCell>
        <mxCell id="oWOTrId1yVSzaJ3O2O2T-23" value="Live Scores" style="text;strokeColor=none;fillColor=none;html=1;fontSize=24;fontStyle=1;verticalAlign=middle;align=center;" vertex="1" parent="1">
          <mxGeometry x="890" y="165" width="100" height="180" as="geometry" />
        </mxCell>
        <mxCell id="oWOTrId1yVSzaJ3O2O2T-26" value="4-0" style="text;strokeColor=none;fillColor=none;html=1;align=center;verticalAlign=middle;whiteSpace=wrap;rounded=0;fontSize=16;" vertex="1" parent="1">
          <mxGeometry x="900" y="360" width="80" height="30" as="geometry" />
        </mxCell>
        <mxCell id="oWOTrId1yVSzaJ3O2O2T-27" value="2-1" style="text;strokeColor=none;fillColor=none;html=1;align=center;verticalAlign=middle;whiteSpace=wrap;rounded=0;fontSize=16;" vertex="1" parent="1">
          <mxGeometry x="900" y="470" width="60" height="30" as="geometry" />
        </mxCell>
        <mxCell id="677b7b8949515195-15" value="&lt;div style=&quot;text-align: justify&quot;&gt;&lt;br&gt;&lt;/div&gt;" style="whiteSpace=wrap;html=1;rounded=0;shadow=0;labelBackgroundColor=none;strokeWidth=1;fillColor=none;fontFamily=Verdana;fontSize=12;align=center;verticalAlign=top;spacing=10;comic=1;" parent="1" vertex="1">
          <mxGeometry x="-10" width="1190" height="920" as="geometry" />
        </mxCell>
      </root>
    </mxGraphModel>
  </diagram>
</mxfile>
